<?xml version="1.0" encoding="UTF-8"?>
<svg version="1.1" xmlns="http://www.w3.org/2000/svg" width="512" height="512">
<path d="M0 0 C1.36125 1.10794922 1.36125 1.10794922 2.75 2.23828125 C4.11125 3.35783203 4.11125 3.35783203 5.5 4.5 C7.31639969 5.75405502 9.15051821 6.98276811 11 8.1875 C16.15974334 11.59637928 21.27449436 15.06562392 26.375 18.5625 C28.0221235 19.69142364 29.66925923 20.82032944 31.31640625 21.94921875 C32.16348145 22.52978027 33.01055664 23.1103418 33.88330078 23.70849609 C38.35540835 26.77029171 42.8339431 29.82264902 47.3125 32.875 C48.22862061 33.49947021 49.14474121 34.12394043 50.08862305 34.76733398 C52.89232337 36.67835768 55.69614172 38.58920808 58.5 40.5 C69.7808758 48.187766 81.05918598 55.87914014 92.32373047 63.59082031 C102.03981361 70.24090346 111.77054383 76.86950573 121.5 83.5 C132.76777922 91.17884086 144.03433865 98.8593461 155.28417969 106.56445312 C159.66292324 109.56247847 164.04610443 112.55384779 168.43359375 115.5390625 C169.93212891 116.5590332 169.93212891 116.5590332 171.4609375 117.59960938 C173.40439931 118.92203057 175.34838649 120.24368008 177.29296875 121.56445312 C178.1746875 122.16451172 179.05640625 122.76457031 179.96484375 123.3828125 C180.744646 123.91277832 181.52444824 124.44274414 182.32788086 124.98876953 C183.04468018 125.48747559 183.76147949 125.98618164 184.5 126.5 C185.6303064 127.27706299 185.6303064 127.27706299 186.78344727 128.06982422 C187.63314087 128.77776123 187.63314087 128.77776123 188.5 129.5 C188.5 130.16 188.5 130.82 188.5 131.5 C169.55048962 132.93650187 150.60081818 134.37086044 131.65095234 135.80266571 C122.85226646 136.46752307 114.05363473 137.13308241 105.25512695 137.80029297 C97.58660841 138.38181212 89.91799165 138.96201557 82.24925393 139.54063749 C78.18851377 139.84707489 74.12782593 140.15417213 70.06725502 140.46284485 C66.24500764 140.75338001 62.42263134 141.04215521 58.60014915 141.32958412 C57.19766214 141.43535455 55.79522334 141.5417666 54.39283752 141.64887047 C52.47668907 141.79511484 50.56034719 141.93881826 48.64399719 142.08239746 C47.57195195 142.16351524 46.49990671 142.24463303 45.39537525 142.32820892 C42.75442171 142.48490442 40.14466404 142.53262105 37.5 142.5 C37.12746094 141.654375 36.75492187 140.80875 36.37109375 139.9375 C34.19604406 135.94158407 31.58684488 132.86917174 28.5625 129.5 C27.38891549 128.16963013 26.21574774 126.83889252 25.04296875 125.5078125 C24.4504834 124.83911133 23.85799805 124.17041016 23.24755859 123.48144531 C20.59313012 120.47175804 17.98237563 117.42544505 15.375 114.375 C14.63552124 113.51165039 14.63552124 113.51165039 13.88110352 112.63085938 C10.11770268 108.23351172 6.37798045 103.81641257 2.64404297 99.39404297 C-1.21411348 94.8281201 -5.09220671 90.2793037 -9.00634766 85.76123047 C-11.56736782 82.79710989 -14.06882286 79.80463287 -16.4921875 76.7265625 C-16.976875 76.12199219 -17.4615625 75.51742187 -17.9609375 74.89453125 C-18.87961001 73.74492172 -19.78422568 72.58388532 -20.671875 71.41015625 C-22.94683939 68.59117864 -24.04567156 67.55991144 -27.69921875 67.078125 C-30.4610053 67.31857829 -30.4610053 67.31857829 -32.4375 68.625 C-34.07709169 71.51839711 -33.33456226 73.34250867 -32.5 76.5 C-30.54896002 79.19761362 -30.54896002 79.19761362 -28 81.6875 C-24.57839803 85.26604498 -21.29005134 88.88764016 -18.1875 92.75 C-14.60604116 97.18268586 -10.92768264 101.51412219 -7.1875 105.8125 C-6.63634521 106.44607422 -6.08519043 107.07964844 -5.51733398 107.73242188 C-4.39821841 109.01848455 -3.27899624 110.30445448 -2.15966797 111.59033203 C4.90785751 119.72245681 11.90307083 127.90008984 18.66015625 136.29296875 C20.41276674 138.47822558 20.41276674 138.47822558 22.24609375 140.17578125 C23.5 141.5 23.5 141.5 23.5 143.5 C10.9346022 144.90534054 -1.65807167 145.95304805 -14.26367188 146.91952515 C-16.02958994 147.05523011 -17.79538184 147.19258833 -19.56103516 147.33169556 C-25.2045858 147.77454789 -30.84862962 148.17113794 -36.5 148.5 C-37.77705811 148.57516846 -39.05411621 148.65033691 -40.36987305 148.7277832 C-47.1778075 148.95090651 -50.98525878 148.58228164 -56.4375 144.4375 C-57.70101251 143.51451458 -58.96539254 142.59271599 -60.23046875 141.671875 C-60.9064209 141.16462891 -61.58237305 140.65738281 -62.27880859 140.13476562 C-66.51042614 137.02035465 -70.8964844 134.12765888 -75.25 131.1875 C-77.15193402 129.89063064 -79.05297682 128.59245328 -80.953125 127.29296875 C-81.88576172 126.65536621 -82.81839844 126.01776367 -83.77929688 125.36083984 C-88.62747219 122.04490371 -93.47524741 118.72838441 -98.32202148 115.41040039 C-107.10706747 109.397366 -115.90452818 103.40255846 -124.70166016 97.40722656 C-130.21590733 93.64895585 -135.72920414 89.88929111 -141.24267578 86.12988281 C-145.86328968 82.97935219 -150.48413953 79.82916878 -155.10546875 76.6796875 C-164.51529261 70.266288 -173.92082268 63.84674894 -183.31713867 57.41357422 C-189.37310558 53.26838781 -195.43566275 49.13292893 -201.5 45 C-215.86323688 35.20991313 -230.22484702 25.41828403 -244.5 15.5 C-241.47672168 12.47672168 -237.87980666 12.89989475 -233.79837036 12.61410522 C-232.88632902 12.54297598 -231.97428768 12.47184675 -231.03460872 12.39856207 C-227.96003519 12.16106824 -224.88463738 11.93679638 -221.80908203 11.71240234 C-219.61147747 11.54539889 -217.41393326 11.37759954 -215.21644592 11.20906067 C-209.23102608 10.75241033 -203.24479755 10.30729844 -197.25834513 9.86441755 C-190.99476263 9.39934153 -184.73191339 8.92458689 -178.46896362 8.45108032 C-167.93908178 7.65643771 -157.40868745 6.86886612 -146.87792969 6.0859375 C-136.06004463 5.28165485 -125.24265856 4.47104629 -114.42578125 3.65332031 C-113.76101753 3.60306683 -113.09625381 3.55281336 -112.41134574 3.50103705 C-111.74770258 3.45086776 -111.08405942 3.40069848 -110.40030587 3.34900892 C-97.45127557 2.3701562 -84.50172727 1.39827323 -71.55202246 0.42838717 C-67.82684814 0.1489278 -64.10177095 -0.13179663 -60.3767128 -0.41279984 C-54.50513053 -0.85537665 -48.63321958 -1.29331743 -42.7610302 -1.72776222 C-40.61157696 -1.88747315 -38.46223424 -2.04867997 -36.31301689 -2.2115345 C-5.26316433 -4.56140909 -5.26316433 -4.56140909 0 0 Z " fill="#4294FF" transform="translate(307.5,43.5)"/>
<path d="M0 0 C1.61317944 -0.00130981 3.22635826 -0.00393946 4.83953369 -0.0077675 C9.25223503 -0.01444994 13.66471638 -0.0025108 18.07738972 0.01256669 C22.8434477 0.02555524 27.60949387 0.0211356 32.37556458 0.01885986 C40.62641449 0.01728891 48.87719308 0.02667951 57.12802505 0.04357338 C69.05724508 0.06798294 80.98643071 0.07577066 92.915673 0.07953735 C112.2713467 0.08609876 131.62698242 0.10605152 150.9826355 0.13444519 C169.78178721 0.16199379 188.5809286 0.18322346 207.38009644 0.19596863 C208.53941048 0.1967568 209.69872453 0.19754497 210.8931693 0.19835702 C216.70926661 0.20227221 222.52536399 0.20606332 228.34146142 0.20979273 C276.57083876 0.24087898 324.80016968 0.29453357 373.0295105 0.36076355 C373.0295105 11.25076355 373.0295105 22.14076355 373.0295105 33.36076355 C365.86424652 33.37289383 365.86424652 33.37289383 358.55422974 33.38526917 C314.78284537 33.46029175 271.01148889 33.54516108 227.24014457 33.64081516 C221.50717296 33.65333453 215.77420116 33.66576722 210.04122925 33.67814636 C208.89986365 33.68061236 207.75849805 33.68307835 206.58254561 33.68561907 C188.08452368 33.7253784 169.58649562 33.75811167 151.08845583 33.78826337 C132.11776985 33.8193413 113.14710999 33.85793493 94.17645335 33.90355361 C82.46387663 33.93148047 70.75131908 33.95349526 59.03871796 33.96802606 C51.01467558 33.9785415 42.99067026 33.99633545 34.96665576 34.01993059 C30.33233989 34.03334073 25.6980761 34.04346746 21.06373978 34.04497719 C16.8247737 34.04642871 12.58593323 34.05697622 8.3470057 34.07489796 C6.80993967 34.07976586 5.27285852 34.08123515 3.73578635 34.07904236 C1.65288678 34.07655775 -0.42960928 34.08623719 -2.51246262 34.09905052 C-3.67136906 34.10132884 -4.83027551 34.10360717 -6.02430034 34.10595453 C-8.88666022 34.35351335 -10.54913119 34.86878673 -12.9704895 36.36076355 C-13.03992027 44.54036909 -13.09326516 52.71985206 -13.12592602 60.89967918 C-13.14159956 64.69768538 -13.1628681 68.49549036 -13.19680786 72.29338074 C-13.22934191 75.95678822 -13.24732979 79.62000186 -13.25512123 83.28354263 C-13.26067553 84.68304625 -13.27152149 86.08253894 -13.28767967 87.4819603 C-13.30937224 89.43803866 -13.3107142 91.39431103 -13.31106567 93.35050964 C-13.31772751 94.46525665 -13.32438934 95.58000366 -13.33125305 96.72853088 C-13.21220108 97.59716766 -13.09314911 98.46580444 -12.9704895 99.36076355 C-9.39891862 101.74181081 -7.86087526 101.61416364 -3.61989307 101.62247658 C-2.96978442 101.62647264 -2.31967577 101.6304687 -1.64986685 101.63458586 C0.54364305 101.6456151 2.736903 101.6423512 4.93043518 101.63923645 C6.5128258 101.6442362 8.09521387 101.65011105 9.6775983 101.65678918 C14.03763601 101.67264202 18.39760938 101.67602276 22.75767243 101.67743778 C27.45502389 101.68112264 32.15233967 101.69627349 36.84967041 101.71005249 C44.99202287 101.73235797 53.13436269 101.74735145 61.27673912 101.75741959 C73.04933581 101.77198704 84.82188848 101.79751837 96.59445939 101.82575087 C115.69332221 101.8712541 134.79219136 101.90785429 153.89108276 101.93888855 C172.44708365 101.96905965 191.00306905 102.00340328 209.55905151 102.04338074 C210.70228265 102.04584229 211.84551379 102.04830383 213.02338829 102.05083998 C218.75847583 102.0632143 224.49356318 102.07567088 230.22865045 102.08816838 C277.82891615 102.19178903 325.42920029 102.28042767 373.0295105 102.36076355 C373.0295105 113.25076355 373.0295105 124.14076355 373.0295105 135.36076355 C323.53307037 135.45119806 274.03665008 135.52280689 224.54014371 135.56502487 C218.696023 135.57002767 212.85190245 135.57520496 207.00778198 135.58049011 C205.84432764 135.58153935 204.68087329 135.5825886 203.48216275 135.58366963 C184.64610993 135.60107269 165.81010597 135.63260985 146.97408213 135.66937473 C127.64516996 135.70678688 108.31628336 135.72899999 88.98733646 135.73711753 C77.06128734 135.74260472 65.13537631 135.75993279 53.2093697 135.79242942 C45.03016683 135.81358064 36.8510353 135.81996219 28.67180707 135.81476906 C23.95350379 135.81220825 19.23544174 135.8161213 14.5171814 135.83758545 C10.19327318 135.85711159 5.86976747 135.85799439 1.54584036 135.84435913 C-0.01424549 135.84267497 -1.57435689 135.84769775 -3.13439278 135.86029628 C-15.82113924 135.95675278 -26.36166338 134.1670943 -35.9704895 125.36076355 C-42.88246548 118.54500998 -47.01814363 110.89469282 -47.15045166 101.10986328 C-47.15471161 100.42309006 -47.15897156 99.73631683 -47.1633606 99.0287323 C-47.17153809 98.29639877 -47.17971558 97.56406525 -47.18814087 96.80953979 C-47.21292054 94.38912247 -47.2294976 91.9687638 -47.243927 89.54826355 C-47.24925068 88.71740234 -47.25457436 87.88654114 -47.26005936 87.03050232 C-47.28676704 82.62708969 -47.30614391 78.22370508 -47.32058716 73.82023621 C-47.33388581 70.19465173 -47.36166574 66.56963549 -47.40261841 62.94425964 C-47.45224582 58.54994203 -47.47674532 54.15613672 -47.48381424 49.7615509 C-47.49047974 48.09676008 -47.50557734 46.43197856 -47.52970505 44.76734924 C-47.71465068 31.22801739 -45.90402577 20.42991413 -36.06814575 10.2631073 C-25.51293629 0.69069201 -13.69410578 -0.08299309 0 0 Z " fill="#9E5BFF" transform="translate(62.970489501953125,336.6392364501953)"/>
<path d="M0 0 C4.19385929 1.6030787 7.74301653 3.66235516 11.4375 6.1875 C12.07872803 6.6203833 12.71995605 7.0532666 13.38061523 7.49926758 C15.5908084 8.99408547 17.79561407 10.49663274 20 12 C21.70048479 13.15630301 23.40100721 14.31255067 25.1015625 15.46875 C29.77934845 18.65240805 34.45219406 21.84325418 39.12402344 25.03564453 C42.88674039 27.60566325 46.65220707 30.17163598 50.41772461 32.73754883 C58.11697956 37.98417201 65.81196134 43.23695513 73.5 48.5 C80.41452662 53.23230056 87.3302917 57.96277865 94.25 62.6875 C95.10013672 63.26886719 95.95027344 63.85023438 96.82617188 64.44921875 C98.5198857 65.60502041 100.2215351 66.74928805 101.93132019 67.88117981 C104.11735708 69.39056475 106.16423367 70.90948219 108.23152161 72.56278992 C118.01113364 80.1110155 124.9383153 81.2079571 136.99609375 79.8828125 C138.56609435 79.75156317 140.13651561 79.62526239 141.70729065 79.50363159 C145.79134529 79.17430321 149.86627122 78.77920781 153.94287109 78.36883545 C158.12313145 77.96023934 162.3086595 77.6158638 166.49414062 77.265625 C174.669151 76.57222783 182.83562946 75.80907614 191 75 C190.45833619 79.93341521 189.72153224 84.51315984 188.3359375 89.29296875 C187.86027344 90.9800293 187.86027344 90.9800293 187.375 92.70117188 C186.70463258 95.03829268 186.03010619 97.3742243 185.3515625 99.70898438 C185.03703125 100.82982422 184.7225 101.95066406 184.3984375 103.10546875 C184.10630371 104.11762451 183.81416992 105.12978027 183.51318359 106.17260742 C182.96209922 109.20881491 182.99978943 111.08728851 184 114 C186.74605843 116.24621573 186.74605843 116.24621573 189.5 115.9375 C192.9085278 114.65930208 193.36540761 113.2323163 195 110 C195.82529848 107.37756769 196.560065 104.80549401 197.2265625 102.14453125 C197.41971039 101.40168381 197.61285828 100.65883636 197.81185913 99.89347839 C198.4237278 97.53501041 199.024819 95.17396656 199.625 92.8125 C200.23430239 90.44088174 200.84583802 88.06986384 201.45956421 85.6993866 C201.83988057 84.22776115 202.2172782 82.75537768 202.59146118 81.28218079 C203.88990153 76.22019695 203.88990153 76.22019695 205 74 C206.96461487 73.6076355 206.96461487 73.6076355 209.57641602 73.40576172 C210.55155655 73.32582977 211.52669708 73.24589783 212.53138733 73.1635437 C213.59481857 73.08637115 214.65824982 73.00919861 215.75390625 72.9296875 C216.84332016 72.84373322 217.93273407 72.75777893 219.05516052 72.66921997 C221.36919412 72.48841106 223.68358991 72.31218939 225.99829102 72.14013672 C229.52377096 71.877881 233.04800745 71.60236515 236.57226562 71.32421875 C238.82025178 71.15025521 241.06829709 70.97705414 243.31640625 70.8046875 C244.36566788 70.72346649 245.4149295 70.64224548 246.49598694 70.55856323 C252.01596195 70.15100172 257.46511089 69.91486693 263 70 C261.56643062 79.05971716 259.29583393 87.8527297 256.90234375 96.6953125 C256.50374266 98.17927374 256.10543757 99.66331452 255.70741272 101.14743042 C254.87897767 104.23252015 254.04747453 107.31676059 253.21362305 110.40039062 C252.14335907 114.3590235 251.0802263 118.31953053 250.01923275 122.28065681 C249.20081968 125.33354995 248.37908293 128.3855404 247.55627632 131.43725204 C247.16259749 132.8986962 246.76987761 134.36039901 246.37812614 135.82236099 C245.83345908 137.85270617 245.28442424 139.8818182 244.73413086 141.91064453 C244.42261581 143.06549347 244.11110077 144.22034241 243.79014587 145.41018677 C243 148 243 148 242 149 C240.3893017 149.16685169 238.77167425 149.26721987 237.15405273 149.34130859 C236.10258057 149.39171799 235.0511084 149.44212738 233.96777344 149.49406433 C232.80149414 149.54500748 231.63521484 149.59595062 230.43359375 149.6484375 C229.20874268 149.70554398 227.9838916 149.76265045 226.72192383 149.82148743 C223.3364536 149.97807808 219.9508403 150.13024616 216.56507492 150.28023911 C213.72797842 150.40660166 210.89104005 150.53633527 208.05409336 150.66601086 C185.64956425 151.68920575 163.24197827 152.64616737 140.83385086 153.58686066 C138.44023974 153.68738494 136.04664277 153.78824184 133.65304565 153.88909912 C129.86923875 154.04827232 126.08536173 154.20566854 122.30142212 154.36165428 C120.90946522 154.41920662 119.51752723 154.47721824 118.12561035 154.53573036 C116.21327457 154.61596398 114.30085255 154.69413401 112.38842773 154.7722168 C111.31793686 154.81646286 110.24744598 154.86070892 109.14451599 154.90629578 C98.46341719 155.22458453 98.46341719 155.22458453 93.515625 151.921875 C92.00415894 150.9316333 92.00415894 150.9316333 90.4621582 149.92138672 C88.87213989 148.84655029 88.87213989 148.84655029 87.25 147.75 C86.13027652 147.0101743 85.00941166 146.27207335 83.88745117 145.53564453 C81.63537536 144.05581492 79.38801914 142.56922856 77.14404297 141.07714844 C72.90697979 138.27788352 68.61663633 135.56948948 64.3125 132.875 C62.78736897 131.91468389 61.26263234 130.95374116 59.73828125 129.9921875 C58.97338379 129.50975586 58.20848633 129.02732422 57.42041016 128.53027344 C52.94007887 125.69764115 48.47055095 122.84803289 44 120 C37.17540547 115.65270897 30.34396622 111.31673009 23.5 107 C-8.64588999 86.71312959 -8.64588999 86.71312959 -20 79 C-19.42413958 73.69601399 -18.53506789 68.73932463 -17.14233398 63.57421875 C-16.95687012 62.88054703 -16.77140625 62.18687531 -16.58032227 61.47218323 C-15.97395715 59.20923183 -15.36010497 56.94838751 -14.74609375 54.6875 C-14.32107172 53.10722177 -13.89652364 51.52681599 -13.47242737 49.94628906 C-12.36088884 45.80883689 -11.24296419 41.67313705 -10.12365723 37.53778076 C-8.98023531 33.3087877 -7.84292165 29.07815294 -6.70507812 24.84765625 C-4.47599464 16.56349412 -2.24015541 8.28117495 0 0 Z " fill="#657EFF" transform="translate(136,125)"/>
<path d="M0 0 C115.83 0 231.66 0 351 0 C351 4.95 351 9.9 351 15 C349.82771441 15.00238835 348.65542883 15.00477671 347.44761944 15.00723743 C319.63690415 15.06456362 291.82626216 15.13727011 264.01563836 15.22898628 C260.59465446 15.24025481 257.17367014 15.25139321 253.75268555 15.26245117 C253.07161231 15.26465486 252.39053907 15.26685854 251.68882725 15.269129 C240.65250519 15.30452763 229.6161832 15.32937725 218.57982536 15.35034702 C207.26042895 15.37208869 195.94111745 15.40534708 184.62177926 15.44870156 C178.26179381 15.47269398 171.9018903 15.49138325 165.54186058 15.49761391 C159.560762 15.50363759 153.57987325 15.52353853 147.59885216 15.55427551 C145.39898635 15.56309949 143.19909316 15.56676938 140.99921036 15.56500816 C138.00473624 15.56336714 135.01091078 15.57995416 132.01652527 15.60127258 C131.13812758 15.59642501 130.25972989 15.59157743 129.3547141 15.58658296 C125.03262965 15.50485818 125.03262965 15.50485818 121.2778185 17.3326413 C119.31640787 19.8919837 119.60244396 21.88581099 120 25 C123.96986102 27.64657401 127.40728761 27.28862508 132.01652527 27.2784729 C133.41694509 27.2871615 133.41694509 27.2871615 134.84565622 27.29602563 C137.9872266 27.31308801 141.12865063 27.3159075 144.27026367 27.31884766 C146.51698672 27.32814153 148.76370631 27.33830938 151.01042175 27.34928894 C157.12161208 27.37666401 163.23277926 27.39176056 169.34401488 27.40471697 C175.72622197 27.42031473 182.10838156 27.44711558 188.49055481 27.4727478 C199.20650058 27.51426776 209.92244304 27.54884521 220.63842773 27.578125 C231.67653263 27.6083039 242.71461156 27.64265111 253.75268555 27.68261719 C254.77305578 27.68630951 254.77305578 27.68630951 255.81403955 27.69007643 C259.22659614 27.7024509 262.63915243 27.71490746 266.05170858 27.72740483 C294.36776941 27.83099695 322.68386325 27.92004461 351 28 C351 32.95 351 37.9 351 43 C235.17 43 119.34 43 0 43 C0 28.81 0 14.62 0 0 Z " fill="#9D5CFF" transform="translate(62,383)"/>
<path d="M0 0 C0.93642334 0.59530518 1.87284668 1.19061035 2.83764648 1.80395508 C3.83352783 2.4564624 4.82940918 3.10896973 5.85546875 3.78125 C6.89195557 4.44600342 7.92844238 5.11075684 8.99633789 5.7956543 C11.20248196 7.21179939 13.405107 8.63343903 15.60449219 10.06005859 C19.10012759 12.32485934 22.62055507 14.54918133 26.14453125 16.76953125 C28.42375324 18.21002842 30.70207159 19.65194793 32.98046875 21.09375 C34.07012939 21.78082031 35.15979004 22.46789062 36.2824707 23.17578125 C37.2849585 23.81515625 38.28744629 24.45453125 39.3203125 25.11328125 C40.20968506 25.67764893 41.09905762 26.2420166 42.01538086 26.82348633 C44.04296875 28.28125 44.04296875 28.28125 45.04296875 30.28125 C44.43575485 30.28711624 43.82854095 30.29298248 43.20292664 30.29902649 C36.892543 30.36287728 30.5826733 30.44727503 24.27270508 30.54370117 C21.91665414 30.5769902 19.56052269 30.60500961 17.2043457 30.62768555 C13.82077668 30.66115803 10.43794821 30.71347092 7.0546875 30.76953125 C5.47019051 30.77911613 5.47019051 30.77911613 3.85368347 30.78889465 C2.38249809 30.81858589 2.38249809 30.81858589 0.8815918 30.84887695 C-0.41413506 30.86553154 -0.41413506 30.86553154 -1.73603821 30.88252258 C-3.99010756 31.13874488 -3.99010756 31.13874488 -5.73716736 32.43899536 C-7.48080784 35.07226436 -7.32417992 37.04540763 -7.31347656 40.18969727 C-7.31647766 41.40428116 -7.31947876 42.61886505 -7.3225708 43.87025452 C-7.310224 45.18279709 -7.2978772 46.49533966 -7.28515625 47.84765625 C-7.28209817 49.20621024 -7.28022242 50.56476736 -7.27947998 51.92332458 C-7.27487894 54.76891093 -7.26046014 57.61421396 -7.23828125 60.4597168 C-7.20997208 64.11058125 -7.19906682 67.76122283 -7.19459915 71.41218662 C-7.1904464 74.21655006 -7.18063057 77.02086828 -7.16872406 79.82520866 C-7.16024292 81.82719791 -7.15375011 83.82919526 -7.14727783 85.83119202 C-7.13767029 87.04262375 -7.12806274 88.25405548 -7.11816406 89.50219727 C-7.10792206 91.10745018 -7.10792206 91.10745018 -7.09747314 92.74513245 C-7.12574579 95.27471656 -7.12574579 95.27471656 -5.95703125 97.28125 C127.19796875 97.77625 127.19796875 97.77625 263.04296875 98.28125 C263.04296875 104.88125 263.04296875 111.48125 263.04296875 118.28125 C225.41949698 118.4408713 187.79608533 118.56478297 150.17234339 118.63870731 C145.73248944 118.64746246 141.29263616 118.65652269 136.8527832 118.66577148 C135.52691757 118.66852574 135.52691757 118.66852574 134.17426678 118.67133565 C119.85418422 118.70181106 105.53429798 118.75701189 91.21433196 118.82131957 C76.52528887 118.88673548 61.83634874 118.92565195 47.14716595 118.93986946 C38.07996896 118.94948374 29.01332682 118.97986954 19.94630059 119.03666527 C13.73221096 119.07361199 7.51840898 119.08486333 1.30421744 119.07575964 C-2.28352986 119.07126718 -5.87030642 119.07824538 -9.45788193 119.11568832 C-13.34510109 119.155963 -17.23104857 119.1421993 -21.11845398 119.12303162 C-22.25561047 119.14342151 -23.39276696 119.1638114 -24.56438273 119.18481916 C-31.99169767 119.08538305 -31.99169767 119.08538305 -34.73158705 116.80302632 C-36.06057942 115.00474682 -37.03560953 113.31541016 -37.95703125 111.28125 C-38.27591944 110.6125444 -38.59480763 109.9438388 -38.9233591 109.2548694 C-42.18180224 101.87541963 -41.40996786 93.28640213 -41.390625 85.3828125 C-41.39519511 83.74050686 -41.40050313 82.09820312 -41.4065094 80.4559021 C-41.41540875 77.02488403 -41.41305435 73.59409911 -41.40307617 70.16308594 C-41.39159847 65.79333295 -41.41179541 61.42438956 -41.44099331 57.05474281 C-41.45945139 53.6658121 -41.45904373 50.27707192 -41.45335579 46.88810349 C-41.4532037 45.27835328 -41.45915355 43.66858921 -41.47164726 42.05888748 C-41.56555316 27.97738817 -39.38082149 17.00878268 -29.33203125 6.59765625 C-21.656458 -0.52712355 -9.62386473 -6.21864359 0 0 Z " fill="#876AFF" transform="translate(96.95703125,205.71875)"/>
<path d="M0 0 C7.77004921 -0.23239724 15.52714245 -0.45240285 23.2976532 -0.56925201 C26.91759587 -0.62676137 30.53459131 -0.70321837 34.15283203 -0.82983398 C50.81279255 -1.39740074 64.64900798 -1.48460817 78.16563416 9.55204773 C81.35219135 12.067349 84.81359818 14.15892382 88.25 16.3125 C89.64016951 17.21614686 91.02970196 18.12077648 92.41796875 19.02734375 C97.7760816 22.51327313 103.16865185 25.94471761 108.5625 29.375 C109.93680176 30.24958862 109.93680176 30.24958862 111.33886719 31.1418457 C112.21833008 31.700896 113.09779297 32.25994629 114.00390625 32.8359375 C114.84453613 33.37057617 115.68516602 33.90521484 116.55126953 34.45605469 C118.90657864 35.94109704 121.27827881 37.39677638 123.65234375 38.8515625 C124.75707031 39.56054688 125.86179687 40.26953125 127 41 C127 41.33 127 41.66 127 42 C85.09 42 43.18 42 0 42 C0 28.14 0 14.28 0 0 Z " fill="#836CFF" transform="translate(102,249)"/>
</svg>
